<?xml version="1.0" encoding="UTF-8"?><svg id="Layer_2" xmlns="http://www.w3.org/2000/svg" viewBox="0 0 209.58 181.5"><defs><style>.cls-1{fill:#fff;}.cls-2{fill:none;stroke:#fff;stroke-miterlimit:10;stroke-width:3px;}</style></defs><g id="Layer_1-2"><g id="Highscore"><polygon class="cls-2" points="156.32 1.5 53.26 1.5 1.73 90.75 53.26 180 156.32 180 207.85 90.75 156.32 1.5"/><path class="cls-1" d="M124.73,46.62v-.08h-39.85v.04c-9.52,.41-17.12,8.24-17.12,17.86s7.91,17.78,17.7,17.89c1.5,6.28,5.97,11.38,11.84,13.78,1.2,2.09,1.88,4.51,1.88,7.09,0,4.9-2.47,9.23-6.23,11.81v.07c-1.41,.23-2.49,1.45-2.49,2.92v2.06c-1.41,.23-2.49,1.45-2.49,2.92v9c0,1.64,1.33,2.97,2.97,2.97h27.68c1.64,0,2.97-1.33,2.97-2.97v-9c0-1.48-1.08-2.69-2.49-2.92v-2.06c0-1.48-1.08-2.69-2.49-2.92v-.07c-3.76-2.58-6.23-6.91-6.23-11.81,0-2.57,.69-4.98,1.87-7.07,5.88-2.39,10.36-7.49,11.88-13.76,9.78-.12,17.67-8.08,17.67-17.89s-7.58-17.43-17.09-17.86Zm-39.85,30.65c-6.74-.4-12.09-5.98-12.09-12.83s5.35-12.42,12.09-12.83v25.66Zm39.85,.04v-25.65c6.72,.42,12.05,5.99,12.05,12.83s-5.33,12.4-12.05,12.83Z"/></g></g></svg>