<?xml version="1.0" encoding="UTF-8"?><svg id="Layer_2" xmlns="http://www.w3.org/2000/svg" viewBox="0 0 598.08 148.03"><defs><style>.cls-1{fill:#fff;}</style></defs><g id="Layer_1-2"><g><path class="cls-1" d="M203.84,2.13c0-.74,.66-1.39,1.39-1.39h2.86c.81,0,1.39,.66,1.39,1.39V23.54h29.78V2.13c0-.74,.59-1.39,1.39-1.39h2.86c.73,0,1.39,.66,1.39,1.39V50.69c0,.74-.66,1.39-1.39,1.39h-2.86c-.81,0-1.39-.66-1.39-1.39V28.46h-29.78v22.22c0,.74-.59,1.39-1.39,1.39h-2.86c-.73,0-1.39-.66-1.39-1.39V2.13Z"/><path class="cls-1" d="M259.88,2.13c0-.74,.66-1.39,1.39-1.39h2.93c.73,0,1.39,.66,1.39,1.39V50.69c0,.74-.66,1.39-1.39,1.39h-2.93c-.73,0-1.39-.66-1.39-1.39V2.13Z"/><path class="cls-1" d="M303.31,0c7.41,0,12.76,2.57,17.75,6.82,.59,.59,.66,1.47,.07,2.05-.66,.66-1.47,1.39-2.05,2.05-.66,.73-1.1,.66-1.91-.07-3.74-3.3-9.02-5.72-13.94-5.72-11.59,0-20.39,9.68-20.39,21.05s8.8,21.2,20.39,21.2c8.07,0,13.2-3.08,13.2-3.08v-10.27h-8.44c-.81,0-1.39-.59-1.39-1.32v-2.71c0-.81,.59-1.39,1.39-1.39h12.69c.73,0,1.32,.66,1.32,1.39v16.8c0,.37-.29,.96-.59,1.17,0,0-7.48,4.84-18.12,4.84-14.67,0-26.48-11.66-26.48-26.33S288.64,0,303.31,0Z"/><path class="cls-1" d="M334.27,2.13c0-.74,.66-1.39,1.39-1.39h2.86c.81,0,1.39,.66,1.39,1.39V23.54h29.78V2.13c0-.74,.59-1.39,1.39-1.39h2.86c.73,0,1.39,.66,1.39,1.39V50.69c0,.74-.66,1.39-1.39,1.39h-2.86c-.81,0-1.39-.66-1.39-1.39V28.46h-29.78v22.22c0,.74-.59,1.39-1.39,1.39h-2.86c-.73,0-1.39-.66-1.39-1.39V2.13Z"/><path class="cls-1" d="M120,80.84c0,3.63-1.44,6.74-4.32,9.31-2.88,2.57-6.34,3.86-10.38,3.86s-7.49-1.28-10.35-3.86c-2.86-2.57-4.3-5.67-4.3-9.31,0-.85,.15-1.95,.44-3.3-1.65-.15-2.7-.22-3.14-.22-5.58,0-8.37,2.33-8.37,6.99,0,2.39,1.64,7.73,4.93,16.03,3.29,8.3,4.93,14.8,4.93,19.49,0,10.06-5.56,17.61-16.69,22.63-8.3,3.71-18.01,5.56-29.13,5.56-10.17,0-19.18-1.41-27.04-4.24-11.05-3.97-16.58-10.06-16.58-18.28,0-11.97,10.19-17.95,30.56-17.95h20.98l4.02,8.81h-16.36c-4.11,0-7.69,.72-10.74,2.15-3.97,1.87-5.95,4.64-5.95,8.31,0,4.15,2.73,7.4,8.21,9.75,4.22,1.8,8.74,2.7,13.55,2.7,6.09,0,11.18-1.34,15.25-4.02,4.74-3.09,7.11-7.51,7.11-13.27,0-3.97-1.51-9.66-4.52-17.07-3.01-7.41-4.52-13.18-4.52-17.29,0-13.4,11.4-20.1,34.2-20.1h13.6c3.74,0,7.08,1.27,10.02,3.8,3.05,2.68,4.57,5.86,4.57,9.53Z"/><path class="cls-1" d="M192.59,80.95c0,3.85-1.52,7.1-4.57,9.75-2.9,2.5-6.3,3.74-10.19,3.74s-7.36-1.25-10.3-3.74c-3.05-2.64-4.57-5.89-4.57-9.75,0-1.28,.15-2.39,.44-3.3-7.86,.07-15,4.15-21.42,12.23-6.02,7.64-9.03,15.5-9.03,23.57,0,15.16,9.89,22.74,29.68,22.74h27.7c-1.14,5.87-5.6,8.81-13.38,8.81h-20.32c-12.67,0-22.95-1.84-30.84-5.51-10.83-5.07-16.19-13.31-16.08-24.73,.07-6.39,2.04-12.78,5.89-19.17,5.25-8.74,12.7-15.64,22.36-20.71,9.36-4.92,19.31-7.38,29.85-7.38h11.01c3.56,0,6.75,1.36,9.55,4.07,2.81,2.72,4.21,5.84,4.21,9.36Z"/><path class="cls-1" d="M285.05,95.82c0,13.58-5.34,25.41-16.03,35.47-10.35,9.73-21.99,14.59-34.91,14.59-9.51,0-17.02-2.57-22.53-7.71-5.51-5.14-8.26-12.19-8.26-21.15,0-4.63,1.08-9.58,3.25-14.87,2.06-5.03,4.77-9.58,8.15-13.66h24.23c-4.15,3.67-7.58,8.37-10.3,14.1-2.75,5.87-4.13,11.51-4.13,16.91,0,4.44,.92,8.2,2.75,11.29,2.2,3.67,5.38,5.51,9.53,5.51,6.9,0,13.14-4.46,18.72-13.38,4.96-8,7.43-15.68,7.43-23.02,0-5.84-1.69-10.38-5.07-13.63-3.38-3.25-8.04-4.88-13.99-4.88h-54.36l8.43-13.88h50.67c10.28,0,18.63,2.09,25.06,6.28,7.56,4.95,11.34,12.3,11.34,22.03Z"/><path class="cls-1" d="M386.93,136.19c-.15,2.75-1.43,4.96-3.86,6.61-2.2,1.47-4.75,2.2-7.65,2.2h-21.2c-2.9,0-5.1-.77-6.61-2.31-.99-.99-2.24-3.16-3.74-6.5l-10.85-24.01c1.36-.26,4.5-1.3,9.42-3.14,4.77-1.76,7.76-2.97,8.98-3.63,7.31-3.78,10.96-8.52,10.96-14.21,0-6.54-4.63-9.8-13.88-9.8h-56.17l8.59-13.88h55.46c19.94,0,29.9,6.35,29.9,19.05,0,10.76-10.37,20.16-31.12,28.2l9.91,21.42h21.86Zm-46.09-47.69l-20.1,56.5h-19.83l19.94-56.5h19.99Z"/><path class="cls-1" d="M477.36,80.73c0,3.63-1.42,6.74-4.27,9.31-2.85,2.57-6.31,3.86-10.38,3.86s-7.43-1.28-10.27-3.86c-2.85-2.57-4.27-5.67-4.27-9.31,0-1.69,.26-3.16,.77-4.41h-6.5c-2.09,0-3.86,.87-5.32,2.61-1.45,1.75-2.17,3.68-2.17,5.81,0,1.73,.59,4.2,1.76,7.41,1.17,3.21,1.76,5.68,1.76,7.41,0,2.06-2.13,4.11-6.39,6.17-6.13,2.94-10.1,5.16-11.9,6.66-4.3,3.6-6.44,8.33-6.44,14.21,0,4.41,2.5,7.27,7.49,8.59,2.46,.66,6.74,.99,12.83,.99h40.15c-.48,2.83-2.15,5.07-5.01,6.72-2.5,1.39-5.31,2.09-8.43,2.09h-45.21c-6.76,0-12.46-1.16-17.13-3.47-6.02-3.01-9.03-7.53-9.03-13.55,0-6.54,3.27-12.5,9.8-17.9,5.36-4.41,11.68-7.62,18.94-9.64-2.09-4.59-3.14-8.76-3.14-12.5,0-7.16,3.78-12.56,11.34-16.19,5.84-2.82,12.78-4.24,20.82-4.24h16.8c3.71,0,6.87,1.31,9.47,3.94,2.61,2.62,3.91,5.72,3.91,9.28Z"/><path class="cls-1" d="M598.08,80.84c0,3.63-1.44,6.74-4.32,9.31-2.88,2.57-6.34,3.86-10.38,3.86s-7.49-1.28-10.35-3.86c-2.86-2.57-4.3-5.67-4.3-9.31,0-.85,.15-1.95,.44-3.3-1.65-.15-2.7-.22-3.14-.22-5.58,0-8.37,2.33-8.37,6.99,0,2.39,1.64,7.73,4.93,16.03,3.29,8.3,4.93,14.8,4.93,19.49,0,10.06-5.56,17.61-16.69,22.63-8.3,3.71-18.01,5.56-29.13,5.56-10.17,0-19.18-1.41-27.04-4.24-11.05-3.97-16.58-10.06-16.58-18.28,0-11.97,10.19-17.95,30.56-17.95h20.98l4.02,8.81h-16.36c-4.11,0-7.69,.72-10.74,2.15-3.97,1.87-5.95,4.64-5.95,8.31,0,4.15,2.73,7.4,8.21,9.75,4.22,1.8,8.74,2.7,13.55,2.7,6.09,0,11.18-1.34,15.25-4.02,4.74-3.09,7.11-7.51,7.11-13.27,0-3.97-1.51-9.66-4.52-17.07-3.01-7.41-4.52-13.18-4.52-17.29,0-13.4,11.4-20.1,34.2-20.1h13.6c3.74,0,7.08,1.27,10.02,3.8,3.05,2.68,4.57,5.86,4.57,9.53Z"/></g></g></svg>