<?xml version="1.0" encoding="UTF-8"?><svg id="Layer_2" xmlns="http://www.w3.org/2000/svg" viewBox="0 0 209.58 181.5"><defs><style>.cls-1{fill:#fff;}.cls-2{fill:none;stroke:#fff;stroke-miterlimit:10;stroke-width:3px;}</style></defs><g id="Layer_1-2"><g id="Settings"><polygon class="cls-2" points="156.32 1.5 53.26 1.5 1.73 90.75 53.26 180 156.32 180 207.85 90.75 156.32 1.5"/><path class="cls-1" d="M147.41,80.81h-6.72c-.41-1.47-.94-2.9-1.52-4.29-.58-1.4-1.21-2.79-1.97-4.12l4.75-4.75c3.3-3.3,3.3-8.64,0-11.93l-2.13-2.13c-3.3-3.3-8.64-3.3-11.93,0l-4.75,4.75c-1.34-.76-2.72-1.39-4.13-1.97-1.39-.58-2.82-1.11-4.29-1.52v-6.72c0-4.66-3.78-8.44-8.44-8.44h-3.01c-4.66,0-8.44,3.78-8.44,8.44v6.72c-1.47,.41-2.9,.94-4.29,1.52-1.4,.58-2.79,1.21-4.13,1.97l-4.75-4.75c-3.3-3.3-8.64-3.3-11.93,0l-2.13,2.13c-3.3,3.3-3.3,8.64,0,11.93l4.75,4.75c-1.56,2.76-2.73,5.69-3.52,8.69h-6.68c-4.66,0-8.44,3.78-8.44,8.44v3.01c0,4.66,3.78,8.44,8.44,8.44h6.9c.83,2.86,2.01,5.65,3.55,8.28l-4.8,4.8c-3.3,3.3-3.3,8.64,0,11.93l2.13,2.13c3.3,3.3,8.64,3.3,11.93,0l5.01-5.01c.91,.5,1.84,.96,2.78,1.37,.36,.16,.71,.31,1.08,.47,.33,.14,.67,.27,1.01,.39,1.1,.42,2.22,.8,3.37,1.12v6.92c0,4.66,3.78,8.44,8.44,8.44h3.01c4.66,0,8.44-3.78,8.44-8.44v-6.96c2.93-.82,5.71-1.99,8.3-3.47l4.78,4.78c3.3,3.3,8.64,3.3,11.93,0l2.13-2.13c3.3-3.3,3.3-8.64,0-11.93l-4.83-4.83c1.43-2.55,2.57-5.27,3.37-8.14h6.72c4.66,0,8.44-3.78,8.44-8.44v-3.01c0-4.66-3.78-8.44-8.44-8.44Zm-48.43,27.74c-.46-.15-.92-.32-1.36-.5-.44-.19-.88-.39-1.31-.61-.07-.03-.14-.06-.2-.1-1.64-.86-3.17-1.98-4.55-3.36s-2.5-2.92-3.36-4.55c-.03-.07-.06-.14-.1-.2-.22-.43-.42-.87-.61-1.31-.18-.45-.35-.9-.5-1.36-.02-.07-.05-.14-.07-.21-.55-1.77-.84-3.65-.84-5.6,0-10.45,8.47-18.92,18.92-18.92,2.5,0,4.88,.5,7.06,1.37,2.17,.92,4.2,2.25,5.96,4.02,7.39,7.39,7.39,19.37,0,26.76-1.38,1.38-2.92,2.5-4.55,3.36-.07,.03-.14,.06-.2,.1-.43,.22-.87,.42-1.31,.61-.45,.18-.9,.35-1.36,.5-.07,.02-.14,.05-.21,.07-1.77,.55-3.65,.84-5.6,.84s-3.83-.3-5.6-.84c-.07-.02-.14-.05-.21-.07Z"/></g></g></svg>