<?xml version="1.0" encoding="UTF-8"?><svg id="Layer_2" xmlns="http://www.w3.org/2000/svg" viewBox="0 0 1018.22 881.81"><defs><style>.cls-1{fill:#fff;}.cls-2{fill:none;stroke:#fff;stroke-miterlimit:10;stroke-width:3px;}</style></defs><g id="Layer_1-2"><g id="Title"><g><path class="cls-1" d="M388.49,207.14c.43-.51,.86-1.11,1.28-1.63,.86-1.11,1.8-1.8,3-.77,.6,.51,6.85,6.5,14.46,6.5,6.93,0,11.47-4.36,11.47-9.41,0-5.91-5.14-9.41-14.98-13.52-9.42-4.11-15.06-7.96-15.06-17.72,0-5.82,4.62-15.23,18.23-15.23,8.39,0,14.64,4.37,14.64,4.37,.51,.26,1.54,1.28,.51,2.91-.34,.51-.68,1.11-1.03,1.63-.77,1.2-1.63,1.54-3,.77-.6-.34-5.99-3.94-11.21-3.94-9.07,0-11.81,5.82-11.81,9.41,0,5.73,4.37,9.07,11.55,12.07,11.55,4.71,19,9.07,19,19,0,8.9-8.47,15.41-18.49,15.41s-16.95-5.91-18.06-6.93c-.68-.6-1.54-1.28-.51-2.91Z"/><path class="cls-1" d="M437.96,156.9c0-.86,.77-1.54,1.63-1.54h2.14l38.6,48.1h.17v-45.62c0-.86,.68-1.63,1.63-1.63h3c.86,0,1.63,.77,1.63,1.63v57.6c0,.86-.77,1.54-1.63,1.54h-1.54l-39.28-49.04h-.09v46.56c0,.86-.68,1.63-1.63,1.63h-3c-.86,0-1.63-.77-1.63-1.63v-57.6Z"/><path class="cls-1" d="M495.98,213.9l26.02-57.6c.26-.51,.68-.94,1.45-.94h.86c.77,0,1.2,.43,1.46,.94l25.85,57.6c.51,1.11-.17,2.23-1.46,2.23h-3.42c-.77,0-1.28-.51-1.46-.94l-6.33-14.12h-30.38l-6.25,14.12c-.17,.43-.68,.94-1.46,.94h-3.42c-1.28,0-1.97-1.11-1.46-2.23Zm40.65-18.14c-4.19-9.33-8.3-18.74-12.5-28.07h-.69l-12.5,28.07h25.68Z"/><path class="cls-1" d="M560.94,158.27c0-1.11,.86-2.05,2.05-2.05h2.48c1.11,0,2.05,.94,2.05,2.05v24.22l26.7-25.42c.34-.43,1.11-.86,1.63-.86h4.19c1.54,0,2.4,1.71,1.03,3l-27.05,25.25,28.33,29.01c.6,.6,.43,2.65-1.45,2.65h-4.37c-.6,0-1.37-.34-1.54-.6l-27.47-28.67v27.22c0,1.11-.94,2.05-2.05,2.05h-2.48c-1.2,0-2.05-.94-2.05-2.05v-55.8Z"/><path class="cls-1" d="M613.4,157.84c0-.86,.68-1.63,1.63-1.63h33.72c.94,0,1.63,.77,1.63,1.63v2.48c0,.86-.68,1.63-1.63,1.63h-28.76v20.88h24.56c.86,0,1.63,.77,1.63,1.63v2.48c0,.94-.77,1.63-1.63,1.63h-24.56v21.82h28.76c.94,0,1.63,.77,1.63,1.63v2.48c0,.86-.68,1.63-1.63,1.63h-33.72c-.94,0-1.63-.77-1.63-1.63v-56.66Z"/><path class="cls-1" d="M436.36,285.47c-1.96,10.83-9.64,16.24-23.04,16.24h-41.2c-3.25,0-6.24-1.33-8.98-4.01-2.74-2.67-4.11-5.7-4.11-9.08,0-1.08,.13-2.13,.41-3.15,1.49-5.01,3.72-12.28,6.7-21.82l-34.3,28.72c-8.66,7.17-16.07,10.76-22.23,10.76-9.2,0-13.8-3.45-13.8-10.35,0-2.23,.51-4.67,1.52-7.31l8.12-21.82-40.39,33.69c-3.45,2.91-7.75,4.36-12.89,4.36h-20.7l24.25-69.01h36.64l-11.47,32.48,31.16-25.57c7.78-6.43,16.51-9.64,26.18-9.64,7.98,0,11.97,3.08,11.97,9.24,0,1.76-.37,3.69-1.12,5.78l-7.31,20.2,30.34-25.78c7.37-6.29,15.56-9.44,24.56-9.44,8.53,0,12.79,3.62,12.79,10.86,0,2.44-.54,5.14-1.62,8.12l-13.09,36.53h41.61Z"/><path class="cls-1" d="M567.28,285.47c-3.25,10.83-11.54,16.24-24.86,16.24h-38.46c-10.96,0-16.44-3.52-16.44-10.55-7.38,8.39-16.44,12.58-27.2,12.58-7.92,0-14.34-2.44-19.28-7.31-4.94-4.87-7.41-11.23-7.41-19.08,0-14.14,5.41-25.3,16.24-33.49,9.81-7.44,21.95-11.16,36.43-11.16h57.95l-19.08,52.77h42.12Zm-65.46-36.53h-22.43l-7.1,23.65c-.41,1.49-.61,2.84-.61,4.06,0,5.89,5.75,8.83,17.25,8.83l12.89-36.53Z"/><path class="cls-1" d="M674.75,285.47c-3.18,10.83-11.03,16.24-23.54,16.24h-66.27c-12.72,0-19.08-3.31-19.08-9.95,0-4.33,1.73-8.29,5.18-11.87l30.14-30.95h-34.51l5.58-16.24h85.86l-48.21,52.77h64.85Z"/><path class="cls-1" d="M802.11,285.47c-1.42,5.21-4.67,9.3-9.74,12.28-4.53,2.64-9.71,3.96-15.53,3.96h-56.53c-32.88,0-49.32-9.91-49.32-29.74,0-12.72,5.62-22.7,16.85-29.94,9.67-6.22,21.17-9.34,34.5-9.34h14.71c8.59,0,16.14,1.32,22.63,3.96,8.66,3.52,13.19,8.86,13.6,16.03,.34,7.24-3.15,13.26-10.45,18.06h-33.59l10.96-21.82h-21.41l-8.32,24.46c-.47,1.42-.71,2.71-.71,3.86,0,5.48,4.4,8.22,13.19,8.22h79.16Z"/></g><polygon class="cls-2" points="762.8 1.5 255.42 1.5 1.73 440.9 255.42 880.31 762.8 880.31 1016.49 440.9 762.8 1.5"/></g></g></svg>